<svg width="32" height="32" viewBox="0 0 32 32" fill="none" xmlns="http://www.w3.org/2000/svg">
<path d="M28.6667 10.6667H7.33337V5.33334H28.6667C29.4034 5.33334 30 5.93001 30 6.66668V9.33334C30 10.07 29.4034 10.6667 28.6667 10.6667Z" fill="#0084FF"/>
<path d="M7.33333 10.6667H3.33333C2.59667 10.6667 2 10.07 2 9.33334V6.66668C2 5.93001 2.59667 5.33334 3.33333 5.33334H7.33333C8.07 5.33334 8.66667 5.93001 8.66667 6.66668V9.33334C8.66667 10.07 8.07 10.6667 7.33333 10.6667Z" fill="url(#paint0_linear)"/>
<path d="M28.6666 18.6667H20.6666V13.3333H28.6666C29.4033 13.3333 30 13.93 30 14.6667V17.3333C30 18.07 29.4033 18.6667 28.6666 18.6667Z" fill="#0084FF"/>
<path d="M20.6667 18.6667H3.33333C2.59667 18.6667 2 18.07 2 17.3333V14.6667C2 13.93 2.59667 13.3333 3.33333 13.3333H20.6667C21.4033 13.3333 22 13.93 22 14.6667V17.3333C22 18.07 21.4033 18.6667 20.6667 18.6667Z" fill="#FFDB01"/>
<path d="M28.6667 26.6667H17.3334V21.3333H28.6667C29.4034 21.3333 30 21.93 30 22.6667V25.3333C30 26.07 29.4034 26.6667 28.6667 26.6667Z" fill="#0084FF"/>
<path d="M17.3333 26.6667H3.33333C2.59667 26.6667 2 26.07 2 25.3333V22.6667C2 21.93 2.59667 21.3333 3.33333 21.3333H17.3333C18.07 21.3333 18.6667 21.93 18.6667 22.6667V25.3333C18.6667 26.07 18.07 26.6667 17.3333 26.6667Z" fill="url(#paint1_linear)"/>
<defs>
<linearGradient id="paint0_linear" x1="5.33333" y1="5.31401" x2="5.33333" y2="10.9127" gradientUnits="userSpaceOnUse">
<stop stop-color="#32BDEF"/>
<stop offset="1" stop-color="#1EA2E4"/>
</linearGradient>
<linearGradient id="paint1_linear" x1="10.3333" y1="21.586" x2="10.3333" y2="26.7307" gradientUnits="userSpaceOnUse">
<stop stop-color="#32BDEF"/>
<stop offset="1" stop-color="#1EA2E4"/>
</linearGradient>
</defs>
</svg>
