<svg width="32" height="32" viewBox="0 0 32 32" fill="none" xmlns="http://www.w3.org/2000/svg">
<path d="M29.3334 16C29.3334 23.3634 23.3634 29.3334 16 29.3334C8.63669 29.3334 2.66669 23.3634 2.66669 16C2.66669 8.63669 8.63669 2.66669 16 2.66669C23.3634 2.66669 29.3334 8.63669 29.3334 16Z" fill="#FFDB01"/>
<path d="M16 16L6.66601 25.5213C1.40801 20.3667 1.32401 11.924 6.47868 6.66602L16 16Z" fill="#0084FF"/>
<path d="M16 27.3334C22.2592 27.3334 27.3334 22.2592 27.3334 16C27.3334 9.74079 22.2592 4.66669 16 4.66669C9.74079 4.66669 4.66669 9.74079 4.66669 16C4.66669 22.2592 9.74079 27.3334 16 27.3334Z" fill="#F2F2F2"/>
<path d="M16 24.5C15.724 24.5 15.5 24.276 15.5 24V16C15.5 15.724 15.724 15.5 16 15.5C16.276 15.5 16.5 15.724 16.5 16V24C16.5 24.276 16.276 24.5 16 24.5Z" fill="#FFDB01"/>
<path d="M16 16.5C15.872 16.5 15.744 16.4513 15.6467 16.3533C15.4513 16.158 15.4513 15.8413 15.6467 15.646L21.3034 9.98933C21.4987 9.794 21.8154 9.794 22.0107 9.98933C22.206 10.1847 22.206 10.5013 22.0107 10.6967L16.3534 16.3533C16.256 16.4513 16.128 16.5 16 16.5Z" fill="#45494D"/>
<path d="M15.9993 16.8333C15.8787 16.8333 15.756 16.8073 15.6393 16.7513L10.448 14.2613C10.0326 14.062 9.85798 13.5647 10.0573 13.1493C10.256 12.7347 10.7533 12.558 11.1687 12.7587L16.36 15.2486C16.7753 15.448 16.95 15.9453 16.7506 16.3606C16.608 16.6586 16.31 16.8333 15.9993 16.8333Z" fill="#45494D"/>
<path d="M16 17.3334C16.7364 17.3334 17.3334 16.7364 17.3334 16C17.3334 15.2636 16.7364 14.6667 16 14.6667C15.2636 14.6667 14.6667 15.2636 14.6667 16C14.6667 16.7364 15.2636 17.3334 16 17.3334Z" fill="#1E2021"/>
<path d="M11.5247 8.64199L5.91203 9.36799C5.55603 9.41399 5.2527 9.11065 5.2987 8.75465L6.0247 3.14199C6.0827 2.69132 6.63337 2.50332 6.9547 2.82532L11.8414 7.71199C12.1627 8.03332 11.9754 8.58332 11.5247 8.64199Z" fill="#FFDB01"/>
</svg>
