<svg width="32" height="32" viewBox="0 0 32 32" fill="none" xmlns="http://www.w3.org/2000/svg">
<path d="M26 10.6667V27.3333C26 28.07 25.4033 28.6667 24.6667 28.6667H7.33333C6.59667 28.6667 6 28.07 6 27.3333V4.66668C6 3.93001 6.59667 3.33334 7.33333 3.33334H18.6667L26 10.6667Z" fill="#2D7AD4"/>
<path d="M18.6666 3.33334V9.33334C18.6666 10.07 19.2633 10.6667 20 10.6667H26L18.6666 3.33334Z" fill="url(#paint0_linear)"/>
<path d="M18.6666 3.33334V9.33334C18.6666 10.07 19.2633 10.6667 20 10.6667H26L18.6666 3.33334Z" fill="url(#paint1_linear)"/>
<path d="M10.0006 26.6667C9.77193 26.6667 9.5486 26.5487 9.42527 26.336C9.23993 26.0187 9.3466 25.6107 9.66327 25.424C9.67993 25.414 10.3179 25.032 11.1006 24.3187C10.4046 23.274 9.99993 21.8 9.99993 20.066C9.99993 16.8873 11.2339 14.6667 12.9999 14.6667C14.7219 14.6667 15.3333 16.706 15.3333 18.452C15.3333 20.996 14.1653 22.9793 12.9579 24.3493C13.2633 24.5527 13.6106 24.6667 13.9999 24.6667C14.9519 24.6667 15.8266 24.3867 16.5553 23.9427C16.1639 23.234 15.9999 22.352 15.9999 21.534C15.9999 20.0667 16.6739 18 18.1719 18C18.7213 18 19.9999 18.2627 19.9999 20.6967C19.9999 21.8227 19.4806 23.0093 18.5966 23.9733C18.6839 23.9907 18.7773 24 18.8773 24C19.5966 24 19.9579 23.6127 20.5353 22.928C21.1333 22.2173 21.8786 21.3333 23.3333 21.3333C23.7019 21.3333 23.9999 21.632 23.9999 22C23.9999 22.368 23.7019 22.6667 23.3333 22.6667C22.5393 22.6667 22.1399 23.0927 21.5546 23.7873C20.9739 24.476 20.2513 25.3333 18.8766 25.3333C18.3126 25.3333 17.8459 25.1893 17.4639 24.9447C16.4999 25.5907 15.3133 26 13.9999 26C13.2546 26 12.5806 25.756 12.0079 25.3113C11.1346 26.1027 10.4119 26.532 10.3359 26.576C10.2306 26.6373 10.1146 26.6667 10.0006 26.6667ZM12.9999 16C12.1953 16 11.3333 17.634 11.3333 20.066C11.3333 21.254 11.5806 22.4493 12.0639 23.324C13.0653 22.1433 13.9999 20.4947 13.9999 18.452C13.9999 17.504 13.7286 16 12.9999 16ZM18.1719 19.3333C17.8566 19.3333 17.3333 20.3993 17.3333 21.534C17.3333 21.8407 17.3646 22.5173 17.6079 23.0833C18.2726 22.368 18.6666 21.5033 18.6666 20.6967C18.6666 20.2873 18.6186 19.3333 18.1719 19.3333Z" fill="#FFDB01"/>
<defs>
<linearGradient id="paint0_linear" x1="19.0193" y1="10.3147" x2="22.4" y2="6.93334" gradientUnits="userSpaceOnUse">
<stop stop-color="#FFDB01"/>
<stop offset="1" stop-color="#FFDB01"/>
</linearGradient>
<linearGradient id="paint1_linear" x1="19.0193" y1="10.3147" x2="22.4" y2="6.93334" gradientUnits="userSpaceOnUse">
<stop stop-color="#FFDB01"/>
<stop offset="1" stop-color="#FFDB01"/>
</linearGradient>
</defs>
</svg>
