<svg width="32" height="32" viewBox="0 0 32 32" fill="none" xmlns="http://www.w3.org/2000/svg">
<path d="M28.6666 9.33332H13.3333C12.9666 9.33332 12.6666 9.03332 12.6666 8.66666V7.33332C12.6666 6.96666 12.9666 6.66666 13.3333 6.66666H28.6666C29.0333 6.66666 29.3333 6.96666 29.3333 7.33332V8.66666C29.3333 9.03332 29.0333 9.33332 28.6666 9.33332Z" fill="url(#paint0_linear)"/>
<path d="M4.50737 10.4953L2.17137 8.15933C1.94337 7.93133 1.94337 7.56133 2.17137 7.33333L2.99737 6.50733C3.22537 6.27933 3.59537 6.27933 3.82337 6.50733L4.9207 7.60466L8.3547 4.17066C8.5827 3.94266 8.9527 3.94266 9.1807 4.17066L10.0067 4.99666C10.2347 5.22466 10.2347 5.59466 10.0067 5.82266L5.33337 10.4953C5.10537 10.724 4.73537 10.724 4.50737 10.4953Z" fill="#FFDB01"/>
<path d="M28.6666 17.3333H13.3333C12.9666 17.3333 12.6666 17.0333 12.6666 16.6667V15.3333C12.6666 14.9667 12.9666 14.6667 13.3333 14.6667H28.6666C29.0333 14.6667 29.3333 14.9667 29.3333 15.3333V16.6667C29.3333 17.0333 29.0333 17.3333 28.6666 17.3333Z" fill="url(#paint1_linear)"/>
<path d="M4.50737 18.4953L2.17137 16.1593C1.94337 15.9313 1.94337 15.5613 2.17137 15.3333L2.99737 14.5073C3.22537 14.2793 3.59537 14.2793 3.82337 14.5073L4.9207 15.6047L8.3547 12.1707C8.5827 11.9427 8.9527 11.9427 9.1807 12.1707L10.0067 12.9967C10.2347 13.2247 10.2347 13.5947 10.0067 13.8227L5.33337 18.4953C5.10537 18.724 4.73537 18.724 4.50737 18.4953Z" fill="#3D9FFC"/>
<path d="M28.6666 25.3333H13.3333C12.9666 25.3333 12.6666 25.0333 12.6666 24.6667V23.3333C12.6666 22.9667 12.9666 22.6667 13.3333 22.6667H28.6666C29.0333 22.6667 29.3333 22.9667 29.3333 23.3333V24.6667C29.3333 25.0333 29.0333 25.3333 28.6666 25.3333Z" fill="url(#paint2_linear)"/>
<path d="M6 22C4.89533 22 4 22.8953 4 24C4 25.1047 4.89533 26 6 26C7.10467 26 8 25.1047 8 24C8 22.8953 7.10467 22 6 22Z" fill="url(#paint3_linear)"/>
<defs>
<linearGradient id="paint0_linear" x1="16.1506" y1="3.15066" x2="25.4253" y2="12.4253" gradientUnits="userSpaceOnUse">
<stop stop-color="#0084FF"/>
<stop offset="1" stop-color="#195BBC"/>
</linearGradient>
<linearGradient id="paint1_linear" x1="16.1506" y1="11.1507" x2="25.4253" y2="20.4253" gradientUnits="userSpaceOnUse">
<stop stop-color="#0084FF"/>
<stop offset="1" stop-color="#195BBC"/>
</linearGradient>
<linearGradient id="paint2_linear" x1="16.1506" y1="19.1507" x2="25.4253" y2="28.4253" gradientUnits="userSpaceOnUse">
<stop stop-color="#2D98FD"/>
<stop offset="1" stop-color="#195BBC"/>
</linearGradient>
<linearGradient id="paint3_linear" x1="4" y1="24" x2="8" y2="24" gradientUnits="userSpaceOnUse">
<stop stop-color="#0084FF"/>
<stop offset="1" stop-color="#195BBC"/>
</linearGradient>
</defs>
</svg>
